<?xml version="1.0" encoding="UTF-8"?>
<svg width="30px" height="33px" viewBox="0 0 30 33" version="1.1" xmlns="http://www.w3.org/2000/svg" xmlns:xlink="http://www.w3.org/1999/xlink">
    <title>资产</title>
    <g id="资产管理" stroke="none" stroke-width="1" fill="none" fill-rule="evenodd">
        <g id="固定资产-办公设备" transform="translate(-20.000000, -13.000000)" fill-rule="nonzero">
            <g id="资产" transform="translate(20.000000, 13.000000)">
                <path d="M23.8508108,11.7354073 L23.8508108,11.7354073 C24.1958767,12.3443545 24.0236571,13.1156808 23.4523479,13.5200238 L23.32004,13.6569469 L16.9369587,17.5031172 C16.6708046,17.6400406 16.5384958,17.6400406 16.2723437,17.7769637 L16.2723437,25.3292922 L16.2723437,25.3292919 C16.325701,26.0324961 15.7988969,26.6458096 15.0956927,26.699167 C15.0449267,26.7030189 14.9939759,26.7038314 14.9431131,26.7015999 L14.9431132,26.7015999 C14.263664,26.6597933 13.7077535,26.1450581 13.6138799,25.4708281 L13.6138799,17.7785204 C13.4815721,17.7785204 13.3477259,17.641597 13.215417,17.641597 L12.949263,17.5046737 L6.56618165,13.6585033 L6.5661818,13.6585034 C5.94482981,13.2328346 5.72012282,12.4216729 6.03387438,11.7369618 L6.03387436,11.7369619 C6.40435796,11.1662602 7.12580411,10.9358615 7.75849325,11.1861911 L7.89080113,11.3231141 L14.2738825,15.1692845 L14.2738824,15.1692844 C14.6236749,15.415336 15.0744837,15.4669068 15.4708081,15.3062078 L15.603116,15.1692848 L21.9861973,11.3231144 L21.9861972,11.3231145 C22.6198184,10.9511336 23.4331055,11.1309696 23.8508151,11.7354232 L23.8508108,11.7354073 Z" id="路径" fill="#FFFFFF"></path>
                <path d="M14.9738533,2.69230932 C14.6815452,2.69230932 14.3938539,2.7692324 14.1400074,2.91692509 L3.52459844,9.04463955 L3.52459829,9.04463964 C3.0089793,9.34233244 2.69117545,9.89233143 2.69075235,10.487717 L2.69075235,22.7446664 L2.69075235,22.7446309 C2.69116353,23.3400165 3.00895581,23.8900237 3.52456852,24.1877281 L14.1399775,30.316963 L14.1399774,30.316963 C14.6554874,30.614593 15.2906224,30.614593 15.8061323,30.3169631 L26.4215413,24.1892486 L26.4215415,24.1892485 C26.9376364,23.8912807 27.2553874,23.3405651 27.2553874,22.7446308 L27.2553874,10.4877145 L27.2553874,10.488013 C27.2553874,9.89254145 26.9375971,9.34233918 26.4217993,9.04478355 L15.8063903,2.91706909 L15.8063903,2.9170691 C15.5534353,2.77054417 15.266408,2.69308398 14.9740814,2.69230932 L14.9738533,2.69230932 Z M12.9846194,0.918461405 L12.9846192,0.918461521 C14.2141317,0.208600419 15.7289571,0.208600419 16.9584729,0.918461289 L27.5738819,7.04462226 L27.5738823,7.04462246 C28.8039633,7.75481079 29.5615762,9.06732914 29.5615762,10.4877124 L29.5615762,22.7446618 L29.5615762,22.7458428 C29.5615762,24.1663021 28.8033818,25.4787445 27.5728578,26.1883378 L16.9574488,32.3160523 L16.9574491,32.3160521 C15.7279366,33.0259132 14.2131112,33.0259132 12.9835953,32.3160525 L2.36818636,26.188338 L2.36818653,26.1883381 C1.13926893,25.4772375 0.383113905,24.1644911 0.384589209,22.7446532 L0.384589209,10.4877039 L0.384589209,10.4871735 C0.384589209,9.0675802 1.14186686,7.75580223 2.37120753,7.04590146 M2.37120753,7.04590146 L12.9866165,0.918187002" id="形状" fill="#FFFFFF"></path>
                <path d="M14.9738533,0.384614485 C14.2753922,0.384614485 13.5892367,0.569232814 12.9861596,0.916924444 L2.37075064,7.04463891 L2.37075036,7.04463907 C1.14102958,7.75498605 0.383856524,9.06757712 0.384593066,10.487729 L0.384593066,22.7446784 L0.384593066,22.7448057 C0.385084026,24.1646303 1.14277151,25.4764116 2.37239974,26.186276 L12.9878087,32.3139905 L12.9878085,32.3139904 C14.2173211,33.0238515 15.7321465,33.0238515 16.9616623,32.3139906 L27.5770713,26.1862761 L27.5770714,26.1862761 C28.8066765,25.4763621 29.5643222,24.1645577 29.5647653,22.7447396 L29.5647653,10.4877242 L29.5647653,10.486543 C29.5647653,9.06608376 28.8065709,7.75364143 27.5760469,7.04404806 L16.960638,0.916333593 L16.9606381,0.916333683 C16.3565133,0.567817052 15.6713031,0.384614485 14.9738567,0.384614485 L14.9738533,0.384614485 Z" id="路径" fill="#4273F6"></path>
                <path d="M23.8523312,11.7338538 L23.8523312,11.7338537 C24.1973971,12.342801 24.0251775,13.1141273 23.4538683,13.5184703 L23.3215604,13.656932 L16.9384791,17.5031023 C16.672325,17.6384871 16.5400162,17.6384871 16.2738641,17.7754105 L16.2738641,25.3292594 L16.2738641,25.3292597 C16.3263687,26.03253 15.7988209,26.6452023 15.0955506,26.6977069 C15.0453336,26.701456 14.9949391,26.7022312 14.9446306,26.7000287 L14.9446306,26.7000287 C14.2651815,26.658222 13.709271,26.1434869 13.6153974,25.4692568 L13.6153974,17.7769492 C13.4830895,17.7769492 13.3492434,17.6400258 13.2169345,17.6400258 L12.9507805,17.5031024 L6.56769913,13.6569321 L6.56769929,13.6569322 C5.9463473,13.2312634 5.72164031,12.4201017 6.03539188,11.7353906 L6.03539182,11.7353907 C6.40587543,11.164689 7.12732158,10.9342903 7.76001072,11.1846199 L7.89231859,11.3230816 L14.2753999,15.1692519 L14.2754001,15.169252 C14.6254669,15.4147916 15.0762592,15.465781 15.4723257,15.3046368 L15.6046336,15.1677134 L21.987715,11.321543 L21.9877149,11.3215431 C22.6213361,10.9495622 23.4346231,11.1293982 23.8523327,11.7338519 L23.8523312,11.7338538 Z" id="路径" fill="#FFFFFF"></path>
            </g>
        </g>
    </g>
</svg>